<?xml version="1.0" encoding="utf-8"?>
<!-- Generator: Adobe Illustrator 28.2.0, SVG Export Plug-In . SVG Version: 6.00 Build 0)  -->
<svg version="1.1" id="Layer_1" xmlns="http://www.w3.org/2000/svg" xmlns:xlink="http://www.w3.org/1999/xlink" x="0px" y="0px"
	 viewBox="0 0 500.3 189.5" style="enable-background:new 0 0 500.3 189.5;" xml:space="preserve">
<style type="text/css">
	.st0{fill:#98989A;}
	.st1{fill:#A5D061;}
	.st2{fill:#02955F;}
	.st3{fill:#FFD200;}
	.st4{fill:#F47D4B;}
	.st5{fill:#FCB53C;}
	.st6{fill:#00BFDD;}
	.st7{fill:#ABE8E9;}
	.st8{fill:#006394;}
</style>
<g>
	<polygon class="st0" points="19.6,0.9 47.7,0.9 47.7,7.5 27.5,7.5 27.5,20.8 43.6,20.8 43.6,27.3 27.5,27.3 27.5,41.7 47.8,41.7 
		47.8,48.4 19.6,48.4 19.6,0.9 	"/>
	<polygon class="st0" points="55.9,0.9 66,0.9 75.6,23.5 75.8,23.5 85.4,0.9 94.8,0.9 94.8,48.4 87.8,48.4 87.8,11.3 87.7,11.3 
		78,34.5 72.8,34.5 63,11.3 62.8,11.3 62.8,48.4 55.9,48.4 55.9,0.9 	"/>
	<polygon class="st0" points="104.4,0.9 112.3,0.9 112.3,48.4 104.4,48.4 104.4,0.9 	"/>
	<path class="st0" d="M119.2,43.6l4-5.6c3.3,2.4,6.7,4.5,12.9,4.5c4.5,0,7.8-2.7,7.8-6.4c0-4.1-3.1-6.1-6.7-7.5l-6.7-2.7
		c-6-2.4-9-6.7-9-12.5c0-7.3,5.6-13.4,15-13.4c5.2,0,9.9,1.3,13.7,4.5l-4.1,5.6c-3.5-2.5-6.3-3.9-10.1-3.9c-4.2,0-7.3,2-7.3,6.1
		c0,3.3,2,5.1,6.1,6.9l6.3,2.7c6.7,2.9,10.5,7.1,10.5,12.9c0,8.9-7.4,14.3-16.3,14.3C129.3,49.2,123.6,47.6,119.2,43.6"/>
	<path class="st0" d="M156,43.6l4-5.6c3.3,2.4,6.7,4.5,12.9,4.5c4.5,0,7.8-2.7,7.8-6.4c0-4.1-3.1-6.1-6.7-7.5l-6.7-2.7
		c-6-2.4-9-6.7-9-12.5c0-7.3,5.6-13.4,15-13.4c5.2,0,9.9,1.3,13.7,4.5l-4.1,5.6c-3.5-2.5-6.3-3.9-10.1-3.9c-4.2,0-7.3,2-7.3,6.1
		c0,3.3,2,5.1,6.1,6.9l6.3,2.7c6.7,2.9,10.5,7.1,10.5,12.9c0,8.9-7.4,14.3-16.3,14.3C166.1,49.2,160.4,47.6,156,43.6"/>
	<polygon class="st0" points="196.1,0.9 204,0.9 204,48.4 196.1,48.4 196.1,0.9 	"/>
	<path class="st0" d="M212.4,34.1V15.7c0-10.2,7.3-15.7,16.7-15.7s16.8,4.5,16.8,15.1v18.4c0,10.6-7.5,15.7-16.7,15.7
		S212.4,44.7,212.4,34.1 M237.9,33.8V15c0-5.3-3.5-8.5-9-8.5s-8.7,3.7-8.7,9.1v18.2c0,5.4,3.2,8.8,8.9,8.8S237.9,39,237.9,33.8"/>
	<polygon class="st0" points="254.2,0.9 262,0.9 280,32.7 280.2,32.7 280.2,0.9 287.2,0.9 287.2,48.4 280.5,48.4 261.4,14.3 
		261.2,14.3 261.2,48.4 254.2,48.4 254.2,0.9 	"/>
	<path class="st0" d="M294,43.6l4-5.6c3.3,2.4,6.7,4.5,12.9,4.5c4.5,0,7.8-2.7,7.8-6.4c0-4.1-3.1-6.1-6.7-7.5l-6.7-2.7
		c-6-2.4-9-6.7-9-12.5c0-7.3,5.6-13.4,15-13.4c5.2,0,9.9,1.3,13.7,4.5l-4.1,5.6c-3.5-2.5-6.3-3.9-10.1-3.9c-4.2,0-7.3,2-7.3,6.1
		c0,3.3,2,5.1,6.1,6.9l6.3,2.7c6.7,2.9,10.5,7.1,10.5,12.9c0,8.9-7.4,14.3-16.3,14.3C304.1,49.2,298.4,47.6,294,43.6"/>
	<path class="st0" d="M0,71.4h16.3c9.8,0,14.8,5.7,14.8,14c0,6.7-3.1,11.9-9.4,13.4l10.8,20.1h-8.5l-9.7-18.8H7.9v18.8H0L0,71.4
		L0,71.4L0,71.4z M15,94.1c5.5,0,8.4-2.7,8.4-8.3c0-4.9-2.5-8.1-8.1-8.1H7.9v16.4H15z"/>
	<polygon class="st0" points="40.1,71.4 68.2,71.4 68.2,78 47.9,78 47.9,91.3 64,91.3 64,97.9 47.9,97.9 47.9,112.3 68.2,112.3 
		68.2,118.9 40.1,118.9 40.1,71.4 	"/>
	<path class="st0" d="M76.4,71.4H93c8.8,0,15.5,4.3,15.5,13.6v19.5c0,9.7-6.6,14.4-15.5,14.4H76.4V71.4L76.4,71.4z M92.2,112.5
		c6,0,8.4-4.3,8.4-8.2V85.9c0-4.6-2.7-8.1-8.4-8.1h-7.9v34.7L92.2,112.5L92.2,112.5z"/>
	<path class="st0" d="M116.5,104.9V71.4h7.9v32.8c0,6.7,4.2,9.1,8.8,9.1c5.3,0,8.7-3.4,8.5-8.9V71.4h7.5v33.2
		c0.1,9.8-7.2,15.1-16.5,15.1S116.5,115.4,116.5,104.9"/>
	<path class="st0" d="M157.4,105V85.3c0-9.3,7.3-14.7,16.6-14.7c8.7,0,15.4,4.9,15.4,13.1v3.1h-7v-2.2c0-4.5-3.1-7.6-8.5-7.6
		s-8.7,3.4-8.7,8.5v18.9c0,6.1,3.5,8.8,8.9,8.8s8.3-2.9,8.3-7.3v-2.5h7v3.1c0,8.4-6.7,13.2-15.3,13.2
		C164.8,119.7,157.4,115.1,157.4,105"/>
	<polygon class="st0" points="206.4,77.8 193.4,77.8 193.4,71.4 227.1,71.4 227.1,77.8 214.3,77.8 214.3,118.9 206.4,118.9 
		206.4,77.8 	"/>
	<polygon class="st0" points="233.5,71.4 241.4,71.4 241.4,118.9 233.5,118.9 233.5,71.4 	"/>
	<path class="st0" d="M249.8,104.6V86.2c0-10.2,7.3-15.7,16.7-15.7s16.8,4.5,16.8,15.1v18.4c0,10.6-7.5,15.7-16.7,15.7
		S249.9,115.3,249.8,104.6 M275.4,104.3V85.5c0-5.3-3.5-8.5-9-8.5s-8.7,3.7-8.7,9.1v18.2c0,5.4,3.2,8.8,8.9,8.8
		S275.4,109.5,275.4,104.3"/>
	<polygon class="st0" points="291.7,71.4 299.5,71.4 317.5,103.2 317.6,103.2 317.6,71.4 324.6,71.4 324.6,118.9 317.9,118.9 
		298.8,84.9 298.7,84.9 298.7,118.9 291.7,118.9 291.7,71.4 	"/>
	<path class="st0" d="M80.8,141.8h9.3l14,47.6h-7.9l-3.5-12.7H77.4l-3.5,12.7h-7.3L80.8,141.8L80.8,141.8L80.8,141.8z M90.9,170.7
		l-5.8-21.1H85l-5.9,21.1H90.9L90.9,170.7z"/>
	<polygon class="st0" points="110.3,142 118.2,142 118.2,182.8 138.5,182.8 138.5,189.5 110.3,189.5 110.3,142 	"/>
	<path class="st0" d="M145.9,142h18.2c7.8,0,12.3,4.5,12.3,11.7c0,5.5-3.3,10.3-8.2,11.3v0.1c5.7,1.1,8.9,5.9,8.9,11.3
		c0,8.4-5.4,13-12.8,13h-18.5V142L145.9,142L145.9,142z M161,162.2c4.1,0,7.7-2.3,7.7-7.4c0-4.6-2.9-6.7-6.9-6.7h-8.1v14.1
		L161,162.2L161,162.2z M162,183.3c4.3,0,7.2-2.6,7.2-7.7s-3.5-7.1-7.9-7.1h-7.6v14.8H162z"/>
	<polygon class="st0" points="185.3,142 213.5,142 213.5,148.6 193.2,148.6 193.2,161.9 209.3,161.9 209.3,168.4 193.2,168.4 
		193.2,182.8 213.5,182.8 213.5,189.5 185.3,189.5 185.3,142 	"/>
	<path class="st0" d="M221.7,142H238c9.8,0,14.8,5.7,14.8,14c0,6.7-3.1,11.9-9.4,13.4l10.8,20.1h-8.5l-9.7-18.8h-6.5v18.8h-7.9
		L221.7,142L221.7,142L221.7,142z M236.7,164.6c5.5,0,8.4-2.7,8.4-8.3c0-4.9-2.5-8.1-8.1-8.1h-7.5v16.4H236.7z"/>
	<polygon class="st0" points="270.5,148.4 257.5,148.4 257.5,142 291.2,142 291.2,148.4 278.4,148.4 278.4,189.5 270.5,189.5 
		270.5,148.4 	"/>
	<path class="st0" d="M304.5,141.8h9.3l14,47.6h-7.9l-3.5-12.7h-15.3l-3.5,12.7h-7.3L304.5,141.8L304.5,141.8L304.5,141.8z
		 M314.7,170.7l-5.8-21.1h-0.1l-5.9,21.1H314.7L314.7,170.7z"/>
	<polygon class="st1" points="423.1,95.2 461.7,142.4 500.3,95.2 423.1,95.2 	"/>
	<polygon class="st2" points="423.1,95.2 500.3,95.2 461.7,48 423.1,95.2 	"/>
	<polygon class="st3" points="384.6,48 423.1,95.2 461.7,48 384.6,48 	"/>
	<polygon class="st4" points="346,0.9 384.6,48 423.1,0.9 346,0.9 	"/>
	<polygon class="st5" points="423.1,0.9 384.6,48 461.7,48 423.1,0.9 	"/>
	<polygon class="st6" points="384.6,142.4 423.1,189.5 461.7,142.4 384.6,142.4 	"/>
	<polygon class="st7" points="461.7,142.4 423.1,95.2 384.6,142.4 461.7,142.4 	"/>
	<polygon class="st8" points="346,189.5 423.1,189.5 384.6,142.4 346,189.5 	"/>
</g>
</svg>