<svg xmlns="http://www.w3.org/2000/svg" width="160" height="25" fill="none"><g clip-path="url(#a)"><path fill="#fff" d="M36.254.436H12.051v24h24.203v-24Z"/><path fill="#ED1C24" d="M12.05.436H0v24h12.05v-24ZM32.906 12.436l-.258-.154c-.412-.205-.36-.513-.257-.77.051-.205.72-2.564.72-2.564s-1.75.41-2.162.462c-.309.051-.463-.103-.566-.308-.103-.205-.515-1.282-.515-1.282s-2.163 2.41-2.215 2.41c-.412.36-.824.103-.72-.359.05-.41 1.132-5.179 1.132-5.179s-1.133.667-1.545.923c-.36.205-.566.205-.772-.154-.206-.359-1.648-3.18-1.648-3.18s-1.442 2.821-1.648 3.18c-.206.36-.412.41-.772.154-.36-.205-1.545-.923-1.545-.923s1.03 4.77 1.133 5.18c.051.461-.31.717-.773.358-.051-.05-2.214-2.41-2.214-2.41l-.515 1.282c-.103.205-.206.36-.567.308-.412-.051-2.265-.462-2.265-.462s.772 2.36.824 2.564c.051.206.103.565-.258.77l-.257.154h17.663Z"/><path fill="#ED1C24" d="m15.244 12.435-.412.206s4.12 3.538 4.223 3.64c.154.103.412.257.206.821-.206.616-.515 1.436-.515 1.436s3.81-.77 4.223-.872c.412-.102.772.052.772.462 0 .41-.154 4.461-.154 4.461h1.03s-.155-4.05-.155-4.461c0-.41.36-.564.772-.462.412.103 4.223.872 4.223.872s-.309-.82-.515-1.436c-.206-.615.052-.718.206-.82.155-.103 4.223-3.641 4.223-3.641l-.412-.206H15.244Z"/><path fill="#ED1C24" d="M24.616 22.59s-.155-4.052-.155-4.462c0-.41.36-.564.773-.462.412.103 4.222.872 4.222.872s-.309-.82-.515-1.436c-.206-.615.052-.718.206-.82.155-.103 4.223-3.641 4.223-3.641l-.67-.308c-.411-.205-.36-.513-.257-.77.052-.204.721-2.563.721-2.563s-1.75.41-2.163.461c-.309.051-.463-.102-.566-.307-.103-.206-.515-1.283-.515-1.283s-2.163 2.41-2.215 2.41c-.411.36-.823.103-.72-.358.051-.41 1.132-5.18 1.132-5.18s-1.133.667-1.544.923c-.36.205-.567.205-.773-.154-.206-.358-1.648-3.179-1.648-3.179s-1.442 2.82-1.648 3.18c-.206.358-.412.41-.772.153a118.81 118.81 0 0 1-1.545-.923s1.03 4.77 1.133 5.18c.051.461-.31.718-.773.359-.051-.052-2.214-2.41-2.214-2.41l-.515 1.282c-.103.205-.206.358-.566.307C16.84 9.41 14.986 9 14.986 9s.772 2.359.824 2.564c.051.205.103.564-.258.769l-.67.308s4.12 3.538 4.223 3.64c.155.103.412.257.206.821-.206.616-.514 1.436-.514 1.436s3.81-.77 4.222-.872c.412-.102.773.052.773.462 0 .41-.155 4.461-.155 4.461h.979ZM48.203.436h-12.05v24h12.05v-24Z"/><path fill="#000" d="M60.2.794h1.235l4.583 7.077V.794H67.1v8.718h-1.185l-4.583-6.974v6.974h-1.081V.794h-.052ZM74.465 9.512a1.5 1.5 0 0 1-.72.154c-.516 0-.876-.308-.876-.974-.567.666-1.34.974-2.215.974-1.133 0-2.111-.513-2.111-1.743 0-1.436 1.081-1.744 2.163-1.95 1.133-.204 2.111-.153 2.111-.922 0-.923-.72-1.026-1.39-1.026-.876 0-1.545.257-1.597 1.18H68.8c.052-1.539 1.288-2.103 2.678-2.103 1.133 0 2.37.256 2.37 1.744v3.23c0 .513 0 .718.308.718.103 0 .206 0 .31-.05v.768Zm-1.648-3.23c-.412.307-1.184.307-1.905.41-.67.102-1.288.359-1.288 1.128 0 .667.567.923 1.236.923 1.39 0 1.957-.872 1.957-1.436V6.282ZM76.885 3.205h1.236v.923h-1.236v3.897c0 .462.154.564.772.564h.464v.923h-.773c-1.081 0-1.493-.205-1.493-1.384v-4h-1.082v-.923h1.082V1.307h1.03v1.898ZM84.557 9.512h-.979v-.974c-.463.77-1.133 1.128-2.06 1.128-1.648 0-2.162-.974-2.162-2.308V3.205h1.03V7.46c0 .77.463 1.282 1.287 1.282 1.236 0 1.854-.82 1.854-2V3.205h1.03v6.307ZM86.102 3.205h.978v1.333c.515-1.026 1.184-1.487 2.317-1.487v1.077c-1.699 0-2.266.974-2.266 2.564v2.82h-1.03V3.205ZM95.786 9.512c-.206.103-.412.154-.772.154-.515 0-.876-.308-.876-.974-.566.666-1.339.974-2.214.974-1.133 0-2.112-.513-2.112-1.743 0-1.436 1.082-1.744 2.163-1.95 1.133-.204 2.112-.153 2.112-.922 0-.923-.773-1.026-1.39-1.026-.876 0-1.546.257-1.597 1.18h-1.03c.052-1.539 1.287-2.103 2.678-2.103 1.133 0 2.369.256 2.369 1.744v3.23c0 .513 0 .718.309.718.103 0 .206 0 .309-.05l.051.768Zm-1.648-3.23c-.412.307-1.184.307-1.905.41-.67.102-1.288.359-1.288 1.128 0 .667.567.923 1.236.923 1.39 0 1.957-.872 1.957-1.436V6.282ZM96.813.794h1.03v8.718h-1.03V.794ZM103.047.794h4.12c1.647 0 2.677.872 2.677 2.257 0 1.025-.463 1.897-1.493 2.205 1.03.205 1.236.923 1.287 1.795.052.872 0 1.795.515 2.41h-1.287c-.309-.359-.154-1.282-.309-2.154-.103-.872-.309-1.59-1.442-1.59h-2.832v3.744h-1.185l-.051-8.667Zm3.605 4.052c1.081 0 2.008-.257 2.008-1.539 0-.872-.463-1.487-1.545-1.487h-2.884v3.026h2.421ZM116.693 7.512c-.257 1.385-1.287 2.154-2.729 2.154-2.008 0-2.987-1.384-3.038-3.333 0-1.898 1.236-3.282 2.987-3.282 2.265 0 2.935 2.102 2.883 3.59h-4.737c-.052 1.076.566 2.05 1.957 2.05.875 0 1.441-.41 1.647-1.23l1.03.051Zm-1.03-1.743c-.051-.975-.772-1.795-1.802-1.795-1.081 0-1.751.82-1.802 1.795h3.604ZM118.495 7.512c.051.923.824 1.231 1.699 1.231.67 0 1.545-.154 1.545-.923 0-.82-1.03-.923-2.06-1.18-1.03-.256-2.06-.564-2.06-1.794 0-1.282 1.288-1.795 2.369-1.795 1.391 0 2.524.461 2.575 2h-1.03c-.051-.82-.772-1.077-1.493-1.077-.618 0-1.339.154-1.339.82 0 .718 1.081.872 2.06 1.077 1.03.257 2.059.564 2.059 1.795 0 1.487-1.39 2-2.677 2-1.442 0-2.627-.564-2.678-2.154h1.03ZM126.684 3.05c2.008 0 3.089 1.437 3.089 3.283 0 1.846-1.081 3.282-3.089 3.282-2.009 0-3.09-1.436-3.09-3.282.051-1.795 1.081-3.282 3.09-3.282Zm0 5.693c1.081 0 1.956-.872 1.956-2.359 0-1.538-.875-2.41-1.956-2.41-1.082 0-1.957.872-1.957 2.41 0 1.487.875 2.36 1.957 2.36ZM136.26 9.512h-.979v-.974c-.463.77-1.133 1.128-2.06 1.128-1.647 0-2.162-.974-2.162-2.308V3.205h1.03V7.46c0 .77.463 1.282 1.287 1.282 1.236 0 1.854-.82 1.854-2V3.205h1.03v6.307ZM137.754 3.205h.978v1.333c.515-1.026 1.185-1.487 2.318-1.487v1.077c-1.7 0-2.266.974-2.266 2.564v2.82h-1.03V3.205ZM146.2 5.256c-.154-.77-.721-1.23-1.545-1.23-1.493 0-1.956 1.179-1.956 2.46 0 1.18.515 2.308 1.854 2.308.978 0 1.596-.564 1.75-1.538h1.082c-.206 1.538-1.185 2.461-2.781 2.461-1.957 0-2.987-1.333-2.987-3.23 0-1.898.979-3.385 2.987-3.385 1.442 0 2.575.667 2.729 2.154H146.2ZM153.873 7.512c-.309 1.385-1.287 2.154-2.729 2.154-2.009 0-2.987-1.384-3.039-3.333 0-1.898 1.236-3.282 2.987-3.282 2.266 0 2.936 2.102 2.884 3.59h-4.738c-.051 1.076.567 2.05 1.957 2.05.876 0 1.442-.41 1.648-1.23l1.03.051Zm-1.03-1.743c-.051-.975-.772-1.795-1.802-1.795-1.082 0-1.751.82-1.803 1.795h3.605ZM155.674 7.512c.052.923.824 1.231 1.7 1.231.669 0 1.545-.154 1.545-.923 0-.82-1.03-.923-2.06-1.18-1.03-.256-2.06-.564-2.06-1.794 0-1.282 1.236-1.795 2.369-1.795 1.39 0 2.523.461 2.575 2h-1.03c-.052-.82-.773-1.077-1.494-1.077-.618 0-1.339.154-1.339.82 0 .718 1.082.872 2.06 1.077 1.03.257 2.06.564 2.06 1.795 0 1.487-1.39 2-2.678 2-1.442 0-2.626-.564-2.677-2.154h1.029ZM66.38 18.18c-.258-1.232-1.236-1.847-2.472-1.847-2.06 0-2.987 1.692-2.987 3.539 0 2 .876 3.64 2.987 3.64 1.545 0 2.42-1.076 2.523-2.512h1.185c-.206 2.154-1.597 3.487-3.76 3.487-2.729 0-4.016-2-4.016-4.513s1.442-4.564 4.12-4.564c1.802 0 3.347.974 3.604 2.82l-1.184-.05ZM74.465 24.23a1.5 1.5 0 0 1-.72.154c-.516 0-.876-.308-.876-.974-.567.666-1.34.974-2.215.974-1.133 0-2.111-.513-2.111-1.795 0-1.436 1.081-1.743 2.163-1.948 1.133-.205 2.111-.154 2.111-.923 0-.924-.72-1.026-1.39-1.026-.876 0-1.545.256-1.597 1.18H68.8c.052-1.54 1.288-2.103 2.678-2.103 1.133 0 2.37.256 2.37 1.743v3.231c0 .462 0 .718.308.718.103 0 .206 0 .31-.051v.82ZM72.817 21c-.412.307-1.184.307-1.905.41-.67.102-1.288.359-1.288 1.128 0 .667.567.923 1.236.923 1.39 0 1.957-.872 1.957-1.436V21ZM75.441 17.923h.979v.974c.463-.77 1.133-1.128 2.06-1.128 1.648 0 2.163.974 2.163 2.308v4.153h-1.03v-4.256c0-.77-.515-1.282-1.288-1.282-1.236 0-1.854.82-1.854 1.949v3.538h-1.03v-6.256ZM87.856 24.23a1.5 1.5 0 0 1-.721.154c-.515 0-.876-.308-.876-.974-.566.666-1.339.974-2.214.974-1.133 0-2.111-.513-2.111-1.795 0-1.436 1.081-1.743 2.163-1.948 1.132-.205 2.11-.154 2.11-.923 0-.924-.772-1.026-1.39-1.026-.875 0-1.544.256-1.596 1.18h-1.03c.052-1.54 1.287-2.103 2.678-2.103 1.133 0 2.369.256 2.369 1.743v3.231c0 .462 0 .718.309.718.103 0 .206 0 .309-.051v.82Zm-1.7-3.23c-.412.307-1.184.307-1.905.41-.67.102-1.288.359-1.288 1.128 0 .667.567.923 1.236.923 1.39 0 1.957-.872 1.957-1.436V21ZM94.497 24.23h-1.03v-.871c-.36.718-1.133 1.025-2.008 1.025-1.957 0-2.936-1.538-2.936-3.333 0-1.795.979-3.282 2.884-3.282.67 0 1.597.256 2.06.974v-3.23h1.03v8.717Zm-2.935-.769c1.39 0 1.957-1.18 1.957-2.359 0-1.23-.567-2.41-2.009-2.41s-1.905 1.23-1.905 2.462c0 1.179.618 2.307 1.957 2.307ZM101.708 24.23c-.206.103-.412.154-.772.154-.515 0-.876-.308-.876-.974-.566.666-1.339.974-2.214.974-1.133 0-2.112-.513-2.112-1.795 0-1.436 1.082-1.743 2.163-1.948 1.133-.205 2.112-.154 2.112-.923 0-.924-.721-1.026-1.39-1.026-.876 0-1.546.256-1.597 1.18h-1.03c.051-1.54 1.287-2.103 2.678-2.103 1.133 0 2.369.256 2.369 1.743v3.231c0 .462 0 .718.309.718.103 0 .205 0 .308-.051v.82h.052ZM100.009 21c-.412.307-1.185.307-1.906.41-.67.102-1.287.359-1.287 1.128 0 .667.566.923 1.236.923 1.39 0 1.957-.872 1.957-1.436V21Z"/></g><defs><clipPath id="a"><path fill="#fff" d="M0 .436h160v24H0z"/></clipPath></defs></svg>