<?xml version="1.0" encoding="utf-8"?>
<!-- Generator: Adobe Illustrator 28.2.0, SVG Export Plug-In . SVG Version: 6.00 Build 0)  -->
<svg version="1.1" id="Layer_1" xmlns="http://www.w3.org/2000/svg" xmlns:xlink="http://www.w3.org/1999/xlink" x="0px" y="0px"
	 viewBox="0 0 920.9 280" style="enable-background:new 0 0 920.9 280;" xml:space="preserve">
<style type="text/css">
	.st0{fill:#006394;}
	.st1{fill:#02955F;}
	.st2{fill:#A5D061;}
</style>
<g>
	<g>
		<path class="st0" d="M333.4,100c-7.2,0-12.6-1.5-17.2-6.2l6-6c3,3,7,4,11.3,4c5.5,0,8.4-2.1,8.4-5.9c0-1.6-0.5-2.9-1.5-3.9
			c-0.9-0.9-1.9-1.3-4.2-1.6l-5.6-0.9c-4.2-0.6-7-1.8-9.1-3.9c-2.2-2.2-3.4-5.3-3.4-9.3c0-8.4,6.2-14.3,16.4-14.3
			c6.5,0,11.2,1.6,15.2,5.5l-5.8,5.8c-2.9-2.8-6.6-3.2-9.7-3.2c-4.9,0-7.2,2.7-7.2,6c0,1.3,0.3,2.4,1.3,3.4c0.9,0.9,2.3,1.5,4.3,1.8
			l5.6,0.9c4.3,0.6,7,1.7,9,3.7c2.5,2.3,3.6,5.7,3.6,9.9C350.9,94.8,343.3,100,333.4,100L333.4,100z"/>
		<path class="st0" d="M377.6,60.6v39h-9.2V60.6H356v-8.2h33.9v8.2C389.9,60.6,377.6,60.6,377.6,60.6z"/>
		<path class="st0" d="M422.4,99.6l-9.2-18.8h-6.6v18.8h-9.2V52.4h18.5c9.6,0,15.3,6.6,15.3,14.4c0,6.6-4,10.7-8.6,12.4l10.5,20.3
			H422.4L422.4,99.6z M415.3,60.6h-8.7v12.4h8.7c4,0,6.7-2.6,6.7-6.2S419.3,60.6,415.3,60.6L415.3,60.6z"/>
		<path class="st0" d="M467.5,99.6l-2.8-8.3H448l-2.9,8.3h-9.6l17.2-47.2h7.2l17.2,47.2H467.5L467.5,99.6z M456.5,66.3l-6,17.2h11.7
			L456.5,66.3L456.5,66.3z"/>
		<path class="st0" d="M496.3,60.6v39h-9.2V60.6h-12.3v-8.2h33.9v8.2C508.7,60.6,496.3,60.6,496.3,60.6z"/>
		<path class="st0" d="M516.1,99.6V52.4h31.1v8.2h-21.9v11.1H544v8.2h-18.6v11.5h21.9v8.2L516.1,99.6L516.1,99.6z"/>
		<path class="st0" d="M585.3,94.6c-3.9,4.1-8.3,5.4-13.3,5.4c-5.4,0-9.3-1.8-12.6-5c-4.7-4.7-4.8-10-4.8-19s0.1-14.3,4.8-19
			c3.2-3.2,7.2-5,12.6-5c11,0,16.5,7.2,17.8,15.1h-9.3c-1.1-4.5-3.8-6.9-8.5-6.9c-2.5,0-4.5,1-5.9,2.5c-1.7,2-2.2,4.2-2.2,13.2
			s0.5,11.3,2.2,13.3c1.4,1.5,3.4,2.4,5.9,2.4c2.8,0,5.1-1,6.6-2.7c1.5-1.7,2.1-3.8,2.1-6.3v-1.7H572v-7.8h17.8v6.9
			C589.8,87.1,588.7,91,585.3,94.6L585.3,94.6z"/>
		<path class="st0" d="M599.2,99.6V52.4h9.2v47.2H599.2z"/>
		<path class="st0" d="M635.2,100c-5.4,0-9.4-1.8-12.7-5c-4.7-4.7-4.8-10-4.8-19s0.1-14.3,4.8-19c3.2-3.2,7.2-5,12.7-5
			c8.8,0,15.6,5,17.3,14.9h-9.4c-0.9-3.8-3.3-6.7-7.9-6.7c-2.5,0-4.6,0.9-5.9,2.4c-1.7,2-2.3,4.3-2.3,13.3s0.6,11.3,2.3,13.3
			c1.3,1.5,3.4,2.4,5.9,2.4c4.6,0,7-2.8,8-6.7h9.3C650.8,95,644,100,635.2,100L635.2,100z"/>
		<path class="st0" d="M675.9,99.6V52.4h31.1v8.2h-21.9v11.1h18.6v8.2h-18.6v11.5h21.9v8.2L675.9,99.6L675.9,99.6z"/>
		<path class="st0" d="M743.8,99.6l-18.7-28.9v28.9h-9.2V52.4h8.2l18.7,28.9V52.4h9.2v47.2H743.8z"/>
		<path class="st0" d="M763,99.6V52.4h31.1v8.2h-21.9v11.1h18.6v8.2h-18.6v11.5h21.9v8.2L763,99.6L763,99.6z"/>
		<path class="st0" d="M828.1,99.6l-9.2-18.8h-6.6v18.8h-9.2V52.4h18.5c9.6,0,15.3,6.6,15.3,14.4c0,6.6-4,10.7-8.6,12.4l10.5,20.3
			H828.1L828.1,99.6z M821,60.6h-8.7v12.4h8.7c4,0,6.7-2.6,6.7-6.2S825,60.6,821,60.6L821,60.6z"/>
		<path class="st0" d="M875.5,94.6c-3.9,4.1-8.3,5.4-13.3,5.4c-5.4,0-9.3-1.8-12.6-5c-4.7-4.7-4.8-10-4.8-19s0.1-14.3,4.8-19
			c3.2-3.2,7.2-5,12.6-5c11,0,16.5,7.2,17.8,15.1h-9.3c-1.1-4.5-3.8-6.9-8.5-6.9c-2.5,0-4.5,1-5.9,2.5c-1.7,2-2.2,4.2-2.2,13.2
			s0.5,11.3,2.2,13.3c1.4,1.5,3.4,2.4,5.9,2.4c2.8,0,5.1-1,6.6-2.7c1.5-1.7,2.1-3.8,2.1-6.3v-1.7h-8.7v-7.8H880v6.9
			C880,87.1,878.9,91,875.5,94.6L875.5,94.6z"/>
		<path class="st0" d="M906.8,80.2v19.3h-9.1V80.2l-14.2-27.8h10l8.8,19l8.7-19h10L906.8,80.2L906.8,80.2z"/>
		<path class="st0" d="M353.9,162.1v-27.5l-9,17.9h-6.2l-9.1-17.9v27.5h-9.2V115h9.1l12.3,25.5l12.3-25.5h9.1v47.2L353.9,162.1
			L353.9,162.1z"/>
		<path class="st0" d="M401,162.1l-2.8-8.4h-16.8l-2.9,8.4H369l17.2-47.2h7.2l17.2,47.2H401L401,162.1z M390,128.9l-6,17.2h11.7
			L390,128.9L390,128.9z"/>
		<path class="st0" d="M444.3,162.1l-18.7-28.9v28.9h-9.2V115h8.2l18.7,28.9V115h9.2v47.2L444.3,162.1L444.3,162.1z"/>
		<path class="st0" d="M490.3,162.1l-2.8-8.4h-16.8l-2.9,8.4h-9.6l17.2-47.2h7.2l17.2,47.2H490.3L490.3,162.1z M479.3,128.9l-6,17.2
			h11.7L479.3,128.9L479.3,128.9z"/>
		<path class="st0" d="M534.2,157.2c-3.9,4.1-8.3,5.4-13.3,5.4c-5.4,0-9.3-1.8-12.6-5c-4.7-4.7-4.8-10-4.8-19s0.1-14.3,4.8-19
			c3.2-3.2,7.2-5,12.6-5c11,0,16.5,7.1,17.8,15.1h-9.3c-1.1-4.5-3.8-6.9-8.5-6.9c-2.5,0-4.5,1-5.9,2.5c-1.7,2-2.2,4.2-2.2,13.2
			s0.5,11.3,2.2,13.3c1.4,1.5,3.4,2.4,5.9,2.4c2.8,0,5.1-1,6.6-2.6c1.5-1.7,2.1-3.8,2.1-6.3v-1.7h-8.7v-7.8h17.8v6.9
			C538.7,149.6,537.6,153.6,534.2,157.2L534.2,157.2z"/>
		<path class="st0" d="M548.1,162.1V115h31.1v8.2h-21.9v11.1h18.6v8.2h-18.6v11.5h21.9v8.2L548.1,162.1L548.1,162.1z"/>
		<path class="st0" d="M621.7,162.1v-27.5l-9,17.9h-6.2l-9.1-17.9v27.5h-9.2V115h9.1l12.3,25.5l12.3-25.5h9.1v47.2L621.7,162.1
			L621.7,162.1z"/>
		<path class="st0" d="M641.9,162.1V115h31.1v8.2h-21.9v11.1h18.6v8.2h-18.6v11.5h21.9v8.2L641.9,162.1L641.9,162.1z"/>
		<path class="st0" d="M709.8,162.1l-18.7-28.9v28.9h-9.2V115h8.2l18.7,28.9V115h9.2v47.2L709.8,162.1L709.8,162.1z"/>
		<path class="st0" d="M747.1,123.2v38.9h-9.2v-38.9h-12.3V115h33.8v8.2H747.1L747.1,123.2z"/>
	</g>
	<g>
		<path class="st0" d="M323.2,184.1V199h16.3v2.4h-16.3v16.3h-2.7v-36h21.9v2.4L323.2,184.1L323.2,184.1z"/>
		<path class="st0" d="M370.8,214.6c-2.1,2.1-5.2,3.4-8.8,3.4s-6.6-1.3-8.8-3.4c-3.3-3.3-3.6-6.1-3.6-14.9s0.2-11.5,3.6-14.9
			c2.1-2.1,5.2-3.4,8.8-3.4s6.6,1.3,8.8,3.4c3.3,3.3,3.6,6.1,3.6,14.9S374.2,211.2,370.8,214.6z M368.9,186.6
			c-1.9-1.9-4.2-2.8-6.8-2.8s-5,0.9-6.8,2.8c-2.6,2.6-2.8,5.5-2.8,13.1s0.2,10.5,2.8,13.1c1.9,1.9,4.2,2.8,6.8,2.8s5-0.9,6.8-2.8
			c2.6-2.6,2.8-5.5,2.8-13.1S371.5,189.2,368.9,186.6z"/>
		<path class="st0" d="M407.9,217.7l-8.6-16.6h-9.9v16.6h-2.7v-36h13.7c5.9,0,10.3,3.4,10.3,9.7c0,5.4-3.2,8.9-8.3,9.7l8.7,16.6
			H407.9L407.9,217.7z M400,184.1h-10.6v14.6H400c4.6,0,7.9-2.3,7.9-7.3S404.7,184.1,400,184.1L400,184.1z"/>
		<path class="st0" d="M437.9,217.7v-36h2.7v36H437.9z"/>
		<path class="st0" d="M477.8,217.7L457,186.4v31.3h-2.7v-36h2.7l20.8,31.2v-31.2h2.7v36H477.8z"/>
		<path class="st0" d="M515.3,214.4c-2.2,2.2-5.2,3.3-9,3.3h-12.1v-36h12.1c3.8,0,6.8,1.1,9,3.3c3.4,3.4,3.5,9.4,3.5,14.7
			S518.7,211,515.3,214.4L515.3,214.4z M513.4,186.9c-2.1-2.2-4.9-2.8-7.7-2.8h-8.7v31.2h8.7c2.9,0,5.7-0.6,7.7-2.8
			c2.7-2.8,2.7-8.1,2.7-12.8S516,189.8,513.4,186.9L513.4,186.9z"/>
		<path class="st0" d="M542.9,218c-7.2,0-12.3-5-12.3-12v-24.3h2.7v24c0,6,3.8,9.9,9.6,9.9s9.6-3.9,9.6-9.9v-24h2.7V206
			C555.2,213.1,550.1,218,542.9,218L542.9,218z"/>
		<path class="st0" d="M577.4,218c-5.3,0-8.7-1.5-12-4.8l1.9-1.9c3.2,3.2,5.9,4.2,10.2,4.2c5.7,0,9.3-2.7,9.3-7.4
			c0-2.2-0.6-3.9-2-5.1c-1.3-1.1-2.3-1.5-5.2-1.9l-4.2-0.7c-2.7-0.4-4.9-1.2-6.4-2.6c-1.9-1.6-2.8-3.8-2.8-6.7c0-6,4.2-9.9,11.2-9.9
			c4.5,0,7.3,1.2,10.4,3.9l-1.8,1.8c-2.1-2-4.5-3.3-8.8-3.3c-5.3,0-8.3,2.8-8.3,7.4c0,2.1,0.6,3.7,1.8,4.8c1.3,1.1,3.1,1.8,5.2,2.1
			l4.2,0.7c3.3,0.5,4.8,1.1,6.4,2.5c1.9,1.7,3.1,4,3.1,6.9C589.5,214.1,584.9,218,577.4,218L577.4,218z"/>
		<path class="st0" d="M609.5,184.1v33.6h-2.7v-33.6H596v-2.4h24.2v2.4H609.5z"/>
		<path class="st0" d="M651.1,217.7l-8.6-16.6h-9.9v16.6h-2.7v-36h13.7c5.9,0,10.3,3.4,10.3,9.7c0,5.4-3.2,8.9-8.3,9.7l8.7,16.6
			H651.1L651.1,217.7z M643.3,184.1h-10.6v14.6h10.6c4.7,0,7.9-2.3,7.9-7.3S647.9,184.1,643.3,184.1L643.3,184.1z"/>
		<path class="st0" d="M673.7,202.8v14.9H671v-14.9l-10.6-21.1h2.9l9.2,18.2l9-18.2h2.9L673.7,202.8L673.7,202.8z"/>
	</g>
</g>
<g>
	<path class="st1" d="M171,100.4c0,7.9-4.4,14.7-10.9,18.2l0,0c-2.9,1.6-6.2,2.4-9.7,2.4s-6.6-0.8-9.5-2.3
		c-6.6-3.4-11.2-10.3-11.2-18.3c0-11.4,9.2-20.6,20.6-20.6S171,89,171,100.4L171,100.4z"/>
	<path class="st1" d="M182.6,203.9c0,0-1.9,2.5-5.5,5.4c-1.9,1.6-4.4,3.4-7.2,5.1c-5.1,2.9-11.7,5.4-19.3,5.4
		c-8.6,0-15.8-3.1-21.2-6.5c-2.5-1.6-4.6-3.2-6.2-4.7c-3-2.6-4.6-4.7-4.6-4.7s-0.4-16.7,2.9-34.2c3.6-19.2,11.5-39.4,29.2-39.4
		s25.5,17.9,29.1,36.1l0,0C183.5,185,182.6,203.9,182.6,203.9L182.6,203.9z"/>
	<circle class="st0" cx="98.9" cy="123.1" r="17.5"/>
	<circle class="st2" cx="200.7" cy="123.1" r="17.5"/>
	<g>
		<path class="st0" d="M72.5,205.1c1.3,1.8,2.7,3.6,4.1,5.3c-2.7-2.3-4.1-4.1-4.1-4.1S72.5,205.9,72.5,205.1L72.5,205.1z"/>
		<path class="st0" d="M105.6,204.2l0,0.9c-7.8-6.2-14.5-13.8-19.5-22.5v0c-5.4-7.3-7.4-14.1-8-16.7c0.2-0.5,0.3-0.9,0.5-1.4l0,0
			c2.2-5.9,5.2-11.1,9.2-14.5c0,0,0,0,0.1,0c0.8-0.6,1.6-1.2,2.5-1.7l8.8,11l8.4-11.1c1,0.5,1.9,1.1,2.7,1.8c0,0,0,0,0,0
			c0.8,0.6,1.5,1.3,2.2,2.1C105.2,174.4,105.5,200.2,105.6,204.2L105.6,204.2z"/>
	</g>
	<path class="st2" d="M224.3,174.1c-6.1,14.4-16.4,26.6-29.3,34.9l0.4-0.5l0.2-4.1c0.2-4,1.1-31.1-6.7-53.9c1-0.9,2.1-1.8,3.3-2.4
		l8.8,11l8.4-11.1C217.5,152.5,221.9,163.1,224.3,174.1L224.3,174.1z"/>
	<path class="st0" d="M255.4,44l-9.3-9.3l-30,15.3c-8.5-5.7-17.6-10.3-27.1-13.6l-3.8-32.8L159.1,0l-13.5,29.8
		c-9.9,0.3-19.9,1.9-29.5,4.7L92.3,9.3L69.7,22l6.1,33.4c-3.6,2.8-7,5.9-10.3,9.2c-3.7,3.7-7.1,7.6-10.2,11.6l-33-6.8L10.3,92.5
		l24.6,24.6c-2.3,8.6-3.7,17.4-4.1,26.2L0,159.1l3.4,26.8l34.8,4.2c3.2,8.6,7.4,16.9,12.7,24.7l-15.9,31.5l9.1,9.1l37.9-37.9
		l0.5-0.5c-2.1-2.1-4-4.2-5.8-6.4c0,0,0,0,0,0c-1.4-1.7-2.8-3.5-4.1-5.3c-26.5-36.9-23.2-88.5,10-121.7c36.8-36.8,96.6-36.8,133.4,0
		"/>
	<path class="st2" d="M300.3,170.4L300.3,170.4c-9.4,39.5-46.3,30.4-50.7,29.1c-5.3,10.7-12.4,20.5-21,29.1
		c-17.4,17.4-39.4,28.3-63.6,31.6c-5,0.7-10.1,1-15.1,1c-3.8,0-7.7-0.2-11.5-0.6c5.8,8.5,4.1,19.4,4.1,19.4
		c-19-3.2-22.8-15.5-23.3-23c-7.9-2.2-15.5-5.3-22.7-9.2l4.4-8.1c19,10.3,41.3,14.4,62.8,11.4c22.2-3.1,42.4-13.1,58.3-29
		c7.1-7.1,13.1-15.1,17.8-23.8c0,0,0.1-0.1,0.1-0.1c5.1-9.5,8.7-19.8,10.6-30.6c2.2-12.4,2-24.9-0.3-37c-9.3-16-11.1-28.3-9-37.8
		c5.3-23.4,34.8-29.5,34.8-29.5c-2.9,16.8,6.8,20.8,3.2,44.4c-1.9,13-12.2,20-19.5,23.4c2.1,12.5,2.1,25.3-0.1,38
		c-1,6-2.6,11.9-4.6,17.6C271.6,160,300.1,170.3,300.3,170.4L300.3,170.4z"/>
</g>
</svg>
